<svg width="24" height="24" viewBox="0 0 24 24" fill="none" xmlns="http://www.w3.org/2000/svg">
<path fill-rule="evenodd" clip-rule="evenodd" d="M11.9999 19.116C6.90193 19.116 2.76918 15.6633 2.76918 11.4042C2.76918 7.14508 6.90193 3.69238 11.9999 3.69238C17.098 3.69238 21.2307 7.14508 21.2307 11.4042C21.2307 12.5746 20.7237 14.3956 19.8877 15.5473C18.8034 17.0408 17.2496 17.9769 17.2496 17.9769C17.2496 17.9769 17.2389 18.4557 17.4153 19.116C17.5917 19.7763 17.9654 20.2413 17.9654 20.2413C17.9654 20.2413 16.9641 20.5194 15.7511 19.9377C14.8901 19.5249 14.1139 18.9128 14.1139 18.9128C14.1139 18.9128 12.7273 19.116 11.9999 19.116Z" stroke="#CDD9E9" stroke-width="1.5"/>
</svg>
